<?xml version="1.0" encoding="UTF-8" standalone="no"?>
<svg
   xmlns:dc="http://purl.org/dc/elements/1.1/"
   xmlns:cc="http://creativecommons.org/ns#"
   xmlns:rdf="http://www.w3.org/1999/02/22-rdf-syntax-ns#"
   xmlns:svg="http://www.w3.org/2000/svg"
   xmlns="http://www.w3.org/2000/svg"
   viewBox="0 0 94.493332 94.493332"
   height="94.493332"
   width="94.493332"
   xml:space="preserve"
   id="svg2"
   version="1.1"><metadata
     id="metadata8"><rdf:RDF><cc:Work
         rdf:about=""><dc:format>image/svg+xml</dc:format><dc:type
           rdf:resource="http://purl.org/dc/dcmitype/StillImage" /><dc:title></dc:title></cc:Work></rdf:RDF></metadata><defs
     id="defs6" /><g
     transform="matrix(1.3333333,0,0,-1.3333333,0,94.493333)"
     id="g10"><path
       d="M 0,0 V 70.8656 H 70.8656 V 56.693 H 14.173 V 14.1738 H 70.8656 V 0 H 0"
       id="path16" /><path
       d="m 41.2516,52.5102 h 2.9695 v -9.4887 c 0,-1.0797 0.0422,-1.3285 0.2492,-1.7231 0.332,-0.6437 1.0176,-0.9968 1.9727,-0.9968 1.2664,0 2.0761,0.623 2.2011,1.682 0.0411,0.3113 0.0411,0.5187 0.0411,1.2875 v 9.2391 h 2.948 v -9.7168 c 0,-1.3707 -0.0203,-1.6407 -0.2273,-2.2629 -0.375,-1.1422 -1.7864,-2.7203 -4.9004,-2.7203 -2.2012,0 -3.8,0.6644 -4.6309,1.9308 -0.4766,0.7477 -0.623,1.3289 -0.623,2.7199 v 10.0493"
       id="path18" /><path
       d="m 54.5406,52.5102 h 3.2188 l 2.7605,-5.7719 c 0.7266,-1.5367 1.2871,-3.0524 1.5781,-4.0903 -0.1042,1.1211 -0.2078,2.9692 -0.2285,3.9657 l -0.0625,5.8965 h 2.7618 V 38.0801 h -3.0313 l -2.4715,5.523 c -0.7883,1.8063 -1.6816,3.841 -1.9512,4.7336 0.1036,-1.1836 0.125,-2.8855 0.1454,-4.0902 l 0.0832,-6.1664 h -2.8028 v 14.4301"
       id="path20" /><path
       d="m 67.8395,52.5102 h 3.0312 V 38.0801 h -3.0312 v 14.4301"
       id="path22" /><path
       d="m 41.2145,32.5258 h 3.0722 l 1.2461,-5.6891 c 0.6024,-2.6988 0.7684,-4.7547 0.7684,-4.7547 0.0617,0.5606 0.3117,2.616 0.7472,4.6094 l 1.2871,5.8344 h 3.1778 l 1.3281,-6.457 c 0.2695,-1.3497 0.6231,-3.8208 0.6231,-3.8208 0.041,0.4571 0.5398,3.5922 0.789,4.7965 l 1.1836,5.4813 h 3.0516 L 55.0016,17.9711 h -3.1778 l -1.2871,5.8762 c -0.498,2.2422 -0.664,4.0691 -0.6855,4.1937 0,0 -0.2903,-2.0347 -0.7051,-4.1523 l -1.1836,-5.9176 h -3.302 l -3.446,14.5547"
       id="path24" /><path
       d="m 60.482,32.5102 h 2.9688 v -9.4887 c 0,-1.0797 0.041,-1.3285 0.2488,-1.7231 0.3332,-0.6437 1.0176,-0.9968 1.9727,-0.9968 1.2668,0 2.0761,0.623 2.2004,1.682 0.0418,0.3113 0.0418,0.5187 0.0418,1.2875 v 9.2391 h 2.9484 v -9.7168 c 0,-1.3707 -0.0207,-1.6407 -0.2285,-2.2629 -0.3731,-1.1422 -1.7852,-2.7203 -4.9004,-2.7203 -2.2004,0 -3.7988,0.6644 -4.6289,1.9308 -0.4785,0.7477 -0.6231,1.3289 -0.6231,2.7199 v 10.0493"
       id="path26" /><path
       d="m 63.4496,36.8629 c 0.8899,0 1.6164,-0.7086 1.6164,-1.5809 0,-0.8898 -0.7265,-1.6164 -1.5976,-1.6164 -0.8907,0 -1.5996,0.7266 -1.5996,1.6164 0,0.8723 0.7089,1.5809 1.5808,1.5809"
       id="path28" /><path
       d="m 67.9352,36.8629 c 0.8894,0 1.616,-0.7086 1.616,-1.5809 0,-0.8898 -0.7266,-1.6164 -1.5985,-1.6164 -0.8906,0 -1.5988,0.7266 -1.5988,1.6164 0,0.8723 0.7082,1.5809 1.5813,1.5809"
       id="path30" /></g></svg>
